<svg width="258" height="172" viewBox="0 0 258 172" fill="none" xmlns="http://www.w3.org/2000/svg">
<path d="M0.191007 83.3264L2.84548 81.3643H137.993L139.032 80.2102V73.0547C139.032 52.973 133.876 37.4309 123.566 26.4283C113.333 15.4257 98.0219 9.92436 77.6324 9.92436C66.0912 9.92436 55.8196 13.002 46.8174 19.1573C37.8153 25.3126 28.8901 35.4689 20.0419 49.6261L15.0791 46.9716L23.735 19.2727C39.5849 6.80824 57.4353 0.575997 77.2862 0.575997C104.216 0.575997 125.298 7.46224 140.532 21.2347C155.843 35.0072 163.499 54.5503 163.499 79.864C163.499 108.255 155.959 130.607 140.878 146.918C125.798 163.153 105.754 171.27 80.7485 171.27C67.4377 171.27 55.7426 169.501 45.6633 165.961C35.6609 162.422 27.2359 157.152 20.3881 150.15C13.5403 143.071 8.46219 134.608 5.15372 124.759C1.84524 114.834 0.191007 101.023 0.191007 83.3264ZM138.339 91.636L137.531 90.3665H26.9666L25.2354 91.636C25.2354 105.255 26.5434 116.18 29.1594 124.413C31.8523 132.569 35.6225 139.417 40.4698 144.956C45.394 150.419 51.28 154.497 58.1278 157.19C64.9756 159.883 72.8621 161.229 81.7872 161.229C98.9451 161.229 112.41 155.036 122.181 142.648C131.953 130.184 137.339 113.18 138.339 91.636ZM183.029 124.303L184.108 123.494H240.917C240.917 113.247 238.13 105.127 232.557 99.1345C226.984 93.082 219.793 90.0558 210.984 90.0558C202.834 90.0558 194.894 92.6026 187.164 97.6962L185.636 96.0783L189.681 89.2468C198.969 83.7935 208.857 81.0669 219.344 81.0669C230.85 81.0669 240.018 84.8722 246.85 92.4827C253.741 100.093 257.187 110.55 257.187 123.854C257.187 135.659 252.992 146.236 244.602 155.584C236.273 164.873 226.325 169.517 214.76 169.517C204.932 169.517 196.992 166.371 190.939 160.079C184.947 153.727 181.95 145.487 181.95 135.359C181.95 131.524 182.31 127.839 183.029 124.303ZM240.557 128.798H198.939C198.58 131.734 198.4 134.55 198.4 137.247C198.4 145.217 200.138 151.629 203.613 156.483C207.149 161.277 211.913 163.674 217.906 163.674C225.276 163.674 230.909 160.858 234.805 155.225C238.76 149.592 240.737 142.88 240.737 135.09C240.737 132.453 240.677 130.356 240.557 128.798Z" fill="#000"/>
</svg>
