<svg width="220" height="323" viewBox="0 0 220 323" fill="none" xmlns="http://www.w3.org/2000/svg">
<path fill-rule="evenodd" clip-rule="evenodd" d="M95.0439 1.66573C89.928 6.77785 97.1193 15.2714 102.789 10.8139C105.366 8.78921 105.678 6.13737 103.774 2.45695C102.736 0.451412 101.97 0 99.6064 0C97.8219 0 96.0708 0.63964 95.0439 1.66573ZM120.687 4.1385C118.01 6.24315 117.108 10.4483 118.786 13.0068C120.353 15.398 125.322 16.494 127.27 14.8783C134.113 9.20315 127.652 -1.33591 120.687 4.1385ZM143.719 5.63432C142.287 6.59045 140.886 9.68454 140.886 11.8925C140.886 14.3936 143.113 16.4774 146.511 17.157C148.6 17.5743 149.53 17.2569 151.249 15.5387C154.025 12.7653 153.959 10.0202 151.05 7.23509C148.788 5.06964 145.607 4.37503 143.719 5.63432ZM70.1069 11.172C67.3239 14.132 67.3931 18.0798 70.2661 20.2569C72.4423 21.9052 72.7816 21.9351 76.1005 20.7758C79.3736 19.6323 79.617 19.3383 79.5136 16.644C79.4528 15.0482 78.9927 12.7112 78.4926 11.4519C77.2699 8.37695 72.8732 8.22953 70.1069 11.172ZM48.7481 18.702C46.0609 21.3863 46.1184 24.4071 48.8981 26.5908C51.8178 28.8862 55.4159 28.8313 57.0729 26.4659C58.5648 24.338 58.7624 20.6109 57.508 18.268C56.2202 15.8636 51.3469 16.1051 48.7481 18.702ZM171.974 19.3641C169.098 22.519 168.31 24.6661 169.184 26.9631C170.854 31.3523 177.893 32.3551 180.832 28.6214C182.556 26.4309 183.081 22.8571 181.922 21.1897C180.77 19.5323 177.19 17.4901 175.435 17.4901C174.471 17.4901 172.913 18.3338 171.974 19.3641ZM100.521 33.7901C98.7529 35.5575 98.8654 39.407 100.736 41.0977C102.507 42.6993 107.59 42.9316 109.046 41.4766C109.597 40.9269 110.047 39.128 110.047 37.4789C110.047 35.8298 109.597 34.0308 109.046 33.4811C107.611 32.0469 102.065 32.2477 100.521 33.7901ZM76.158 35.1269C74.3944 37.0741 75.3154 42.1188 77.6641 43.3747C80.1279 44.6923 84.8271 43.5788 86.304 41.3267C87.8268 39.003 86.6041 34.4906 84.2478 33.7435C81.6457 32.9181 77.5191 33.6236 76.158 35.1269ZM115.108 35.5092C112.31 39.0638 112.956 41.7232 116.994 43.2565C118.276 43.7437 119.674 44.1418 120.103 44.1418C121.739 44.1418 124.216 40.7087 124.216 38.4408C124.216 33.447 118.245 31.5247 115.108 35.5092ZM22.1574 37.777C20.7047 39.2279 20.2254 40.5763 20.3196 42.9491C20.4371 45.9075 20.6755 46.2073 23.3643 46.7811C28.6886 47.918 32.4868 43.4364 30.4006 38.4783C29.4821 36.2962 28.812 35.8132 26.7007 35.8132C25.103 35.8132 23.3743 36.5602 22.1574 37.777ZM128.929 39.0022C127.267 40.837 127.116 45.2437 128.671 46.5338C130.534 48.0779 134.516 48.4985 136.082 47.3167C138.48 45.506 138.858 41.2826 136.805 39.2312C134.646 37.0741 130.777 36.9608 128.929 39.0022ZM59.4125 39.706C57.1662 41.2717 56.8487 45.8333 58.8465 47.8305C61.7371 50.7181 69.2059 48.3511 69.2059 44.5466C69.2059 43.0957 67.5139 39.8484 66.2887 38.9489C64.9043 37.9328 61.4045 38.3184 59.4125 39.706ZM148.188 40.573C145.648 40.9578 143.386 43.6138 143.386 46.2098C143.386 50.6473 150.049 54.0029 153.564 51.3352C154.922 50.3033 156.722 46.6254 156.722 44.8805C156.722 43.732 152.504 39.9517 151.391 40.1024C150.885 40.1707 149.443 40.3831 148.188 40.573ZM193.774 42.855C188.948 47.6765 193.468 54.2561 200.677 52.9044C202.558 52.5521 203.784 51.6401 204.666 49.9344C205.813 47.7189 205.809 47.2201 204.629 44.9388C202.362 40.5605 197.084 39.5469 193.774 42.855ZM88.5286 50.4482C82.9876 51.2553 79.5261 52.2764 76.4431 54.0137C74.0668 55.353 71.1854 56.7205 70.0394 57.052C68.8934 57.3843 66.002 58.9351 63.6149 60.4984C57.533 64.4803 53.7756 72.1568 52.4596 83.2864C51.4435 91.8832 51.9936 103.207 53.7398 109.661C55.1851 115.001 60.6394 127.211 62.979 130.343C64.005 131.717 65.0785 133.614 65.3644 134.558C66.8238 139.379 74.4552 143.512 83.7919 144.538C90.4289 145.266 93.3286 146.833 93.3644 149.707C93.3836 151.309 87.7284 150.977 82.7409 149.082C80.3296 148.166 77.845 147.417 77.2199 147.417C75.7088 147.417 65.872 157.02 65.872 158.494C65.872 160.797 58.9282 169.907 53.4972 174.73C50.44 177.445 45.9859 180.655 43.5996 181.863C38.057 184.67 37.1326 186.294 39.1713 189.645C40.2349 191.392 41.5418 192.302 43.3788 192.571C45.5933 192.895 46.521 192.47 48.8731 190.05C50.4292 188.449 51.7028 186.87 51.7028 186.542C51.7028 186.213 54.214 184.115 57.2846 181.88C60.3543 179.645 65.5019 175.273 68.7233 172.164C77.5541 163.641 80.6897 163.444 84.7696 171.154C87.005 175.38 87.4942 177.373 87.936 184.063C88.2227 188.415 88.8261 194.6 89.2762 197.807C91.2791 212.081 90.4556 220.62 86.2832 228.848C85.2246 230.937 85.0129 232.882 85.3805 237.176C86.8224 254.049 87.5484 267.249 87.9801 284.423C88.5802 308.255 88.837 309.162 96.415 314.157C108.41 322.063 110.501 323.206 112.547 322.973C114.151 322.79 114.693 322.185 114.903 320.349C115.229 317.506 112.34 314.114 106.828 310.866C101.468 307.709 95.8874 301.747 95.8282 299.113C95.3348 277.168 95.4365 251.103 96.0258 248.193C97.5477 240.683 98.4512 238.199 99.6606 238.199C100.33 238.199 100.91 238.293 100.95 238.407C100.989 238.521 101.343 243.675 101.735 249.859C102.129 256.043 102.696 264.851 102.998 269.431C103.405 275.622 103.182 279.791 102.131 285.672C99.7131 299.203 99.7264 298.932 101.378 300.756C104.619 304.333 114.131 309.945 116.494 309.674C121.359 309.115 119.177 302.176 112.997 298.558C110.958 297.363 109.045 295.616 108.746 294.675C108.059 292.511 109.106 260.685 110.371 245.278C111.459 232.036 110.893 223.533 108.411 215.793C105.84 207.778 105.441 200.674 107.095 192.392C109.396 180.873 115.248 167.406 117.952 167.406C119.995 167.406 122.512 170.5 125.028 176.105C127.345 181.264 136.388 194.58 140.896 199.471C142.163 200.845 143.812 203.184 144.56 204.669C147.367 210.234 153.043 211.243 155.444 206.603C157.078 203.445 155.565 200.774 150.863 198.518C148.814 197.535 146.076 195.609 144.778 194.238C141.777 191.066 134.482 178.726 133.347 174.901C132.872 173.298 132.034 170.487 131.486 168.655C130.431 165.124 125.309 159.394 120.699 156.584C119.178 155.658 116.485 154.915 114.631 154.911C109.514 154.899 105.217 153.435 104.601 151.493C103.839 149.093 104.581 148.681 109.046 149.032C111.2 149.201 114.464 149.31 116.298 149.273C118.131 149.238 125.004 149.188 131.571 149.163C150.505 149.089 157.108 146.234 168.509 133.188C175.706 124.955 177.092 121.722 177.05 113.27C177.001 103.471 175.576 90.7805 174.243 88.2836C172.775 85.5326 163.342 74.1249 162.534 74.1249C162.188 74.1249 160.081 72.3142 157.854 70.1013C152.482 64.7635 147.629 61.8002 140.51 59.509C137.278 58.4695 131.634 56.4165 127.967 54.9474C113.906 49.3147 113.396 49.1898 104.629 49.2556C100.045 49.2897 92.7993 49.8269 88.5286 50.4482ZM167.525 52.5021C166.163 53.863 165.937 54.8124 166.383 57.291C167.138 61.477 168.098 62.4648 171.409 62.4648C176.649 62.4648 179.333 57.0379 176.261 52.6562C174.553 50.2192 169.892 50.1367 167.525 52.5021ZM7.27723 55.6187C5.29521 57.8066 5.51441 61.0156 7.78983 63.1527C10.472 65.6705 12.9141 65.4331 15.0403 62.4498C16.8123 59.9629 16.8148 59.9054 15.2653 57.2444C13.3542 53.9613 9.49013 53.175 7.27723 55.6187ZM45.2433 56.8238C42.787 59.4432 42.8703 62.0434 45.4933 64.6644C47.1461 66.316 48.1196 66.6666 49.8691 66.2402C53.0038 65.4756 55.2451 63.0361 55.2451 60.3893C55.2451 57.5026 53.5514 55.861 49.9783 55.2847C47.6787 54.9141 46.751 55.2155 45.2433 56.8238ZM107.557 61.5137C111.459 61.901 115.899 62.8621 117.422 63.6491C118.946 64.4362 123.322 65.4031 127.147 65.7979C130.972 66.1919 134.972 67.0639 136.035 67.7343C137.098 68.4056 138.906 69.2185 140.052 69.5416C141.198 69.8648 143.448 71.1416 145.053 72.3784C146.657 73.6152 149.283 75.4333 150.887 76.4186C152.492 77.4039 154.555 79.3669 155.471 80.7811C156.388 82.1953 159.241 85.1895 161.809 87.4349C167.468 92.3813 168.748 95.9884 168.783 107.089C168.806 114.392 168.706 114.804 165.813 119.165C164.165 121.648 162.018 125.486 161.041 127.694C159.146 131.976 157.751 133.413 151.529 137.49C148.221 139.658 146.277 140.218 139.444 140.971C124.463 142.624 107.824 141.846 105.791 139.399C104.331 137.64 106.919 137.094 112.816 137.916C127.78 140.004 139.827 137.525 147.039 130.877C149.385 128.715 152.75 125.88 154.518 124.578C160.299 120.321 160.714 116.339 157.2 98.836C155.617 90.9529 152.589 86.7878 145.326 82.5027C142.655 80.9261 138.753 78.4125 136.655 76.9158C130.093 72.2351 120.794 69.1285 110.463 68.1641C99.3622 67.128 89.0653 67.6277 84.8096 69.41C80.588 71.1774 71.0688 79.6593 69.2359 83.2864C68.2149 85.3069 67.6265 88.9882 67.3172 95.2846C66.923 103.329 67.1064 105.138 68.9225 111.109C72.584 123.142 75.4896 127.342 82.2266 130.34C84.5745 131.384 86.7532 132.656 87.0683 133.165C87.3834 133.675 88.2852 134.091 89.0737 134.091C89.8613 134.091 91.3849 134.707 92.4593 135.459C94.1913 136.671 94.2579 136.914 93.0411 137.594C91.5266 138.441 83.0017 136.342 82.1124 134.903C81.829 134.446 79.597 132.793 77.1523 131.23C73.1166 128.65 72.3456 127.632 68.8008 120.204C66.653 115.703 64.5826 109.959 64.2 107.439C63.8166 104.92 62.9089 101.211 62.1813 99.1983C61.167 96.3873 61.0536 94.8399 61.6946 92.5354C62.153 90.8838 62.5322 86.5346 62.5364 82.87C62.5464 74.0658 63.8199 71.9961 71.6839 68.0042C74.9786 66.3318 78.4234 64.9634 79.3402 64.9634C80.2571 64.9634 83.3218 64.0497 86.1498 62.9337C91.7758 60.7133 95.1756 60.0387 98.3778 60.5059C99.5239 60.6725 103.655 61.1264 107.557 61.5137ZM209.249 71.1907C205.21 75.4875 207.725 81.6207 213.528 81.6207C219.266 81.6207 221.643 77.0899 218.795 71.5847C217.725 69.5175 217.02 69.1277 214.356 69.1277C212.063 69.1277 210.653 69.6974 209.249 71.1907ZM182.768 71.2024C180.483 72.1951 180.059 72.8165 180.059 75.1785C180.059 77.1582 180.744 78.6324 182.397 80.2156C185.247 82.9433 186.839 83.0249 189.53 80.5796C192.712 77.6904 192.952 75.5483 190.429 72.5541C188.014 69.6849 186.768 69.465 182.768 71.2024ZM35.374 75.3742C33.6162 77.1307 33.3761 77.9444 33.8379 80.5796C34.4763 84.2225 36.1158 85.785 39.2997 85.785C41.811 85.785 44.7123 82.7792 45.5958 79.2603C46.0026 77.6404 45.6133 76.7351 43.8647 75.2318C40.9433 72.7207 37.9794 72.7707 35.374 75.3742ZM120.501 79.0363C126.019 81.7373 132.206 84.4457 134.251 85.0537C136.736 85.7933 139.073 87.3683 141.302 89.8052C143.136 91.8108 146.417 95.253 148.595 97.4551C152.625 101.53 153.056 102.822 152.812 110.092C152.71 113.143 146.575 121.661 142.301 124.689C138.088 127.672 129.582 129.934 120.287 130.543C114.585 130.916 112.774 130.707 109.452 129.293C107.258 128.359 101.415 127.006 96.4675 126.286C91.5208 125.564 86.1423 124.344 84.5162 123.573C81.3048 122.05 77.9858 117.651 77.0565 113.686C76.7339 112.312 75.7404 109.732 74.8486 107.953C73.3042 104.874 73.29 104.467 74.5502 99.4531C75.2778 96.5572 75.8738 93.3074 75.8738 92.2322C75.8738 89.4679 79.8828 81.7631 82.0632 80.3347C83.0693 79.6768 85.558 78.599 87.5926 77.9402C89.6279 77.2823 92.7935 76.1704 94.6272 75.4708C96.4983 74.7562 100.705 74.1824 104.215 74.1615C110.188 74.1266 110.918 74.3448 120.501 79.0363ZM94.5788 78.0935C93.4978 78.8439 90.8765 82.606 90.8765 83.408C90.8765 83.7287 91.8475 85.1445 93.0344 86.5537C95.7557 89.7852 99.253 89.9835 102.166 87.0718C104.64 84.6007 104.692 83.667 102.554 80.1632C101.23 77.9927 100.364 77.4588 98.182 77.4688C96.685 77.4763 95.0639 77.757 94.5788 78.0935ZM3.27568 81.8555C-0.610857 84.4641 -1.11762 88.9291 2.17798 91.5193C5.19769 93.8929 7.87567 93.7438 9.96772 91.0862C13.185 87.0001 11.6814 79.9549 7.59146 79.9549C6.77548 79.9549 4.83346 80.8103 3.27568 81.8555ZM110.138 82.3619C107.713 84.7856 107.762 89.4229 110.232 91.1511C114.661 94.2511 120.021 91.6867 120.209 86.3788C120.346 82.5118 119.735 81.8555 115.348 81.1551C112.495 80.6995 111.593 80.9086 110.138 82.3619ZM80.0979 86.5379C77.8541 89.687 77.9233 91.2402 80.4204 93.7347C82.9201 96.2333 85.7672 96.3432 88.6803 94.0528C91.3282 91.9715 91.4908 89.2889 89.1487 86.3139C86.6657 83.1598 82.4308 83.2647 80.0979 86.5379ZM125.082 89.2739C122.934 91.5767 122.924 93.6556 125.049 95.7794C128.817 99.5439 137.686 96.07 136.251 91.3927C135.277 88.217 134.138 87.4507 130.398 87.4507C127.751 87.4507 126.325 87.9396 125.082 89.2739ZM31.82 94.406L29.1128 97.1969L30.5064 100.677C32.4026 105.414 33.8645 106.029 37.8828 103.78C39.6789 102.775 41.5159 101.37 41.9643 100.66C43.7813 97.7816 39.9973 91.615 36.4142 91.615C35.3673 91.615 33.3211 92.8577 31.82 94.406ZM77.0823 98.6402C73.8526 103.567 78.1284 108.596 82.8942 105.476C85.5114 103.762 85.7214 100.622 83.3751 98.278C81.1339 96.0384 78.6968 96.1783 77.0823 98.6402ZM90.1347 99.429C86.9758 101.196 85.9373 103.994 85.9048 110.82C85.8673 118.913 86.6807 120.053 93.0602 120.848C103.71 122.174 104.911 121.956 108.476 118.059C111.522 114.729 111.706 114.227 111.611 109.522C111.515 104.754 110.19 100.645 108.39 99.5339C106.536 98.3887 92.1417 98.3054 90.1347 99.429ZM138.081 101.67C135.441 103.744 135.225 106.781 137.552 109.105C141.747 113.297 149.581 109.125 148.502 103.275C147.855 99.7663 141.707 98.8193 138.081 101.67ZM188.676 100.776C183.594 102.823 186.534 114.036 191.792 112.662C194.043 112.074 197.562 107.692 197.562 105.479C197.562 100.963 193.52 98.8235 188.676 100.776ZM104.926 104.618C106.657 105.829 106.788 106.378 106.268 110.24C105.952 112.593 105.313 114.988 104.851 115.56C103.723 116.953 100.816 116.872 95.3806 115.293L90.8765 113.984V110.454C90.8765 106.846 91.9875 104.647 94.2104 103.853C96.9259 102.884 103.075 103.322 104.926 104.618ZM206.443 104.798C204.23 107.241 204.695 111.364 207.5 114.166C211.432 118.096 216.844 116.784 217.978 111.627C218.402 109.697 218.029 108.508 216.277 106.214C214.418 103.777 213.504 103.275 210.928 103.275C208.978 103.275 207.309 103.841 206.443 104.798ZM95.7082 105.507C91.7125 106.558 93.9862 113.27 98.3378 113.27C102.979 113.27 105.049 108.703 101.526 106.238C99.6864 104.949 98.4295 104.792 95.7082 105.507ZM6.24788 108.643C1.60288 113.284 5.39023 121.732 11.5147 120.389C13.2792 120.002 14.3535 119.065 15.1003 117.264C16.0521 114.966 15.9496 114.282 14.1393 110.858C11.6772 106.2 9.34677 105.546 6.24788 108.643ZM114.413 112.143C112.518 112.934 111.657 115.512 112.526 117.796C113.185 119.526 113.892 119.932 116.248 119.932C120 119.932 121.471 117.643 119.87 114.295C118.822 112.102 116.606 111.228 114.413 112.143ZM129.217 114.935C127.017 117.133 127.114 118.74 129.596 121.219C132.748 124.37 135.912 123.824 137.417 119.872C139.359 114.766 133.135 111.02 129.217 114.935ZM40.109 115.662C39.0046 115.971 37.3277 117.258 36.3833 118.522C34.9539 120.435 34.8372 121.093 35.6832 122.447C36.2425 123.342 36.7 124.628 36.7 125.305C36.7 126.731 39.2013 128.261 41.5334 128.261C42.4186 128.261 44.1739 127.451 45.4341 126.46C47.507 124.831 47.6762 124.304 47.2119 120.923C46.4276 115.204 45.1457 114.255 40.109 115.662ZM185.772 124.224C182.335 125.45 181.371 131.607 184.09 134.962C185.941 137.246 190.284 137.4 192.646 135.265C194.499 133.588 194.879 126.479 193.187 125.146C191.478 123.802 188.125 123.385 185.772 124.224ZM50.5192 131.518C49.3832 132.773 49.199 133.915 49.6474 136.905C50.39 141.851 51.5644 142.755 56.3236 142.042C59.1974 141.611 60.3443 140.992 61.0211 139.509C62.338 136.621 61.2386 133.92 57.8864 131.801C54.2607 129.51 52.4037 129.438 50.5192 131.518ZM175.438 139.467C172.796 142.106 172.845 144.368 175.588 146.523C178.352 148.697 180.09 148.704 182.402 146.552C184.873 144.252 184.723 141.265 182.03 139.149C179.185 136.912 177.933 136.973 175.438 139.467ZM198.775 139.467C195.899 142.341 195.904 147.518 198.783 149.403C201.531 151.202 203.561 151.098 206.201 149.022C208.039 147.578 208.398 146.632 208.398 143.222C208.398 140.045 208.042 138.957 206.786 138.285C204.093 136.845 200.932 137.311 198.775 139.467ZM32.481 143.487C30.1372 145.314 29.9197 147.491 31.7108 151.189C33.5912 155.071 36.1208 156.186 39.3722 154.567C42.9012 152.809 43.4654 146.801 40.3899 143.727C38.8446 142.183 34.3296 142.047 32.481 143.487ZM58.1898 145.543C57.4905 146.345 56.4561 147.892 55.891 148.98C54.9717 150.753 55.1334 151.229 57.428 153.522C59.645 155.738 60.2951 155.976 62.2455 155.29C63.6199 154.806 64.9393 153.422 65.6236 151.745C66.6913 149.128 66.6271 148.876 64.2892 146.54C61.4704 143.723 59.9901 143.481 58.1898 145.543ZM164.097 147.975C163.34 148.176 162.279 149.406 161.739 150.708C160.943 152.627 161.001 153.546 162.043 155.559C164.251 159.827 167.265 159.746 170.746 155.324C174.131 151.024 169.965 146.419 164.097 147.975ZM134.363 154.341C133.366 155.402 132.551 157.088 132.551 158.089C132.551 162.294 139.079 164.928 142.077 161.933C143.571 160.439 143.799 156.407 142.523 154.025C141.276 151.696 136.682 151.874 134.363 154.341ZM149.22 157.411C146.094 160.535 147.995 167.421 151.977 167.393C154.273 167.377 155.382 166.643 156.597 164.337C158.032 161.613 157.773 160.051 155.509 157.79C153.028 155.31 151.42 155.213 149.22 157.411ZM160.299 170.895C158.154 171.46 157.453 172.215 156.751 174.708C155.977 177.459 156.08 177.984 157.642 179.274C159.716 180.987 160.882 181.078 163.787 179.756C166.143 178.683 167.176 175.985 166.406 172.918C165.813 170.559 163.939 169.938 160.299 170.895Z" fill="#978661"/>
</svg>
