<svg width="699" height="700" viewBox="0 0 699 700" fill="none" xmlns="http://www.w3.org/2000/svg">
<path fill-rule="evenodd" clip-rule="evenodd" d="M342.654 5.26504C333.4 13.3742 331.156 18.3635 331.156 30.8351C331.156 36.4862 330.829 41.1125 330.43 41.1145C330.031 41.1155 325.78 39.4537 320.983 37.4189C305.183 30.7178 287.708 31.7487 277.5 39.9842C259.473 54.5278 261.426 77.2728 281.468 86.2163C290.215 90.1195 299.14 90.4193 304.793 86.9986C309.752 83.998 309.887 83.0212 305.591 81.2321C292.993 75.9861 294.826 59.3606 308.361 56.1063C321.444 52.9593 334.308 64.9004 332.58 78.5885C331.281 88.886 321.22 99.9456 301.04 113.266C294.975 117.268 289.893 120.385 289.744 120.192C289.596 120 287.869 116.868 285.907 113.232C278.763 99.9977 264.693 91.1454 244.683 87.2954C239.124 86.2254 226.743 84.6438 217.169 83.7804C207.595 82.9169 194.294 81.4798 187.611 80.5883C180.662 79.6606 175.072 79.3437 174.554 79.8481C174.056 80.3335 172.622 83.2318 171.368 86.2885C170.112 89.3443 165.19 99.7239 160.429 109.354C145.979 138.581 144.917 141.786 144.818 156.447C144.74 168.151 144.942 169.379 147.867 174.958C149.59 178.244 152.244 182.388 153.763 184.167C155.283 185.946 156.526 187.841 156.526 188.376C156.526 189.646 131.624 199.03 122.556 201.178C106.103 205.075 92.3449 202.496 85.6652 194.261C78.7597 185.749 78.8394 178.196 85.9111 171.003C91.935 164.877 101.55 165.345 108.18 172.088C111.014 174.971 111.605 176.43 111.605 180.551C111.605 183.29 111.873 185.53 112.202 185.53C114.782 185.53 120.797 182.131 123.109 179.368C127.329 174.326 128.803 169.11 128.184 161.394C126.912 145.508 114.091 136.46 94.4742 137.604C84.3557 138.194 78.8057 140.613 71.9519 147.42C65.3822 153.946 62.1726 161.534 61.2383 172.751L60.5072 181.534L54.9954 178.029C43.1138 170.474 31.5635 168.778 17.8177 172.57L10.2665 174.653L11.0234 179.841C12.772 191.827 22.129 202.876 34.6204 207.704C38.0276 209.022 40.824 210.326 40.8329 210.602C40.843 210.878 38.451 212.457 35.5177 214.112C20.1693 222.771 12.5956 233.462 12.6057 246.451C12.6147 257.747 20.0682 268.414 31.4198 273.373C36.744 275.7 38.5498 275.99 45.1083 275.57C53.3681 275.043 57.7951 273.401 63.9268 268.593C69.0804 264.553 72.2989 258.876 72.2989 253.824C72.2989 248.785 71.1276 248.155 66.4704 250.69C59.273 254.609 50.0238 252.321 45.3408 245.46C42.5141 241.32 42.5085 237.633 45.3205 232.709C49.031 226.216 53.4333 224.14 63.4989 224.14C71.2691 224.14 72.5786 224.436 76.9752 227.188C87.6428 233.864 93.6341 248.441 96.4541 274.573L97.2424 281.882L90.1045 281.238C80.8272 280.398 71.2747 282.029 62.1917 286C51.9767 290.467 39.7537 301.781 23.5103 321.806C16.1781 330.845 7.69252 340.909 4.65137 344.172C-0.15517 349.33 -0.684113 350.326 0.599503 351.807C1.41033 352.744 4.155 355.766 6.69752 358.524C9.24005 361.282 16.8272 370.308 23.5564 378.582C50.117 411.237 64.4456 420.21 88.0808 418.988L97.2604 418.514L96.5158 425.625C94.683 443.134 90.6817 457.74 85.7719 464.832C76.6304 478.042 58.251 481.195 48.2157 471.275C43.7461 466.858 42.3378 461.906 44.1548 456.992C45.6822 452.858 47.9383 450.893 53.5703 448.791C58.1657 447.077 63.8763 447.823 68.5357 450.749C70.6964 452.106 71.0187 452.1 71.624 450.692C75.4973 441.678 65.6619 429.466 51.4534 425.647C42.4007 423.214 35.6277 424.167 27.5566 429.008C13.548 437.409 8.57634 454.254 16.0849 467.874C19.8111 474.633 30.317 484.28 37.0966 487.167C39.163 488.046 40.852 489.022 40.8498 489.333C40.8475 489.645 37.5638 491.415 33.5513 493.268C20.6578 499.221 13.1908 508.461 10.9931 521.176C10.2833 525.289 10.3552 525.408 14.4587 526.94C28.2933 532.101 43.8314 530.202 56.1207 521.847C58.0321 520.547 59.9277 519.484 60.332 519.484C60.7374 519.484 61.0687 522.37 61.0687 525.898C61.0687 537.762 67.5968 551.144 76.2655 557.049C82.8262 561.516 87.8764 562.921 97.567 562.973C105.152 563.014 107.442 562.608 112.267 560.372C119.215 557.151 124.146 552.325 126.779 546.168C131.038 536.211 126.585 520.783 118.355 516.983C112.848 514.44 111.605 514.946 111.6 519.735C111.587 533.478 91.6498 538.882 83.7583 527.28C78.3801 519.373 79.6985 511.941 87.8023 504.481C99.5817 493.637 115.373 494.856 152.337 509.457L157.441 511.473L152.501 518.05C145.559 527.296 143.768 533.497 144.434 545.989C145.09 558.279 147.018 563.668 160.833 591.814C166.357 603.069 171.51 614.166 172.284 616.473C173.939 621.407 174.975 621.918 180.917 620.726C183.365 620.234 196.693 618.701 210.534 617.318C224.374 615.936 238.226 614.369 241.314 613.837C264.409 609.859 278.859 600.96 286.708 585.882C288.202 583.01 289.87 580.659 290.411 580.659C292.463 580.659 313.481 595.719 320.219 602.017C324.086 605.632 328.503 610.993 330.035 613.929C339.128 631.373 323.385 650.141 305.315 643.398C294.285 639.283 294.25 623.784 305.261 619.095C308.378 617.768 308.94 617.104 308.116 615.728C306.678 613.33 300.113 610.745 295.459 610.745C289.039 610.745 280.266 613.839 275.043 617.945C268.232 623.299 265.319 629.076 265.319 637.23C265.319 657.539 285.788 671.274 309.06 666.581C313.433 665.698 320.053 663.606 323.771 661.929C327.488 660.253 330.671 658.883 330.843 658.882C331.015 658.882 330.986 662.831 330.78 667.657C330.27 679.544 332.991 686.114 341.755 694.163C345.251 697.373 348.938 700 349.946 700C353.085 700 363.095 690.339 366.291 684.225C368.921 679.193 369.317 677.164 369.327 668.66C369.333 663.283 369.501 658.883 369.7 658.883C369.899 658.883 372.173 659.96 374.754 661.276C392.711 670.439 413.616 669.224 424.823 658.367C432.34 651.084 434.432 646.513 434.455 637.321C434.472 630.341 434.07 628.683 431.361 624.568C424.471 614.102 408.308 608.119 397.659 612.094C393.068 613.808 389.983 616.881 392.189 617.542C395.657 618.584 401.405 624.231 402.589 627.759C405.178 635.476 398.964 643.647 389.807 644.569C375.731 645.986 364.526 633.232 367.815 619.537C369.366 613.079 376.382 603.96 384.852 597.394C393.556 590.646 408.509 580.653 409.867 580.676C410.43 580.685 412.122 583.233 413.628 586.338C417.63 594.588 426.828 602.972 436.557 607.237C447.895 612.208 458.898 614.349 487.818 617.214C501.715 618.59 515.611 620.143 518.697 620.663C524.348 621.617 527.111 620.873 527.134 618.395C527.146 617.108 533.512 603.281 544.429 580.836C559.194 550.48 559.945 534.459 547.386 517.805C544.963 514.592 543.329 511.664 543.755 511.299C545.614 509.707 569.514 501.264 577.346 499.432C595.528 495.18 608.183 497.955 615.562 507.814C621.651 515.949 620.383 524.92 612.285 531.005C609.085 533.409 607.926 533.686 602.674 533.297C598.053 532.955 595.95 532.212 593.383 530.015C589.511 526.702 587.263 521.415 588.243 517.927C588.836 515.817 588.542 515.473 586.143 515.473C582.12 515.473 575.885 520.826 573.531 526.301C567.68 539.905 574.421 555.131 588.877 560.966C596.127 563.891 608.836 563.794 616.404 560.755C630.233 555.201 639.426 540.469 639.426 523.861C639.426 521.454 639.712 519.484 640.063 519.484C640.412 519.484 642.329 520.594 644.321 521.951C651.791 527.04 660.357 529.736 668.998 529.72C676.621 529.706 689.99 526.488 689.945 524.677C689.868 521.486 685.961 510.173 683.799 506.878C680.053 501.171 672.868 495.646 665.093 492.494L658.512 489.826L665.75 485.577C689.832 471.438 694.733 448.399 677.022 432.583C667.226 423.836 655.223 422.077 643.082 427.609C632.092 432.616 625.208 442.768 628.137 449.649L629.295 452.367L632.525 450.235C636.64 447.519 644.512 447.296 649.192 449.765C656.78 453.767 658.7 462.454 653.537 469.421C649.577 474.765 644.866 476.792 636.498 476.753C616.851 476.659 606.945 460.457 603.258 422.387L602.935 419.056L615.344 418.877C627.189 418.704 628.133 418.529 636.124 415.001C648.913 409.356 656.552 402.371 678.213 376.511C688.975 363.663 698.295 352.866 698.925 352.519C701.158 351.286 700.001 348.767 694.618 343.151C691.619 340.023 683.034 329.951 675.541 320.766C649.585 288.959 637.756 281.402 613.948 281.418L602.508 281.426L602.974 278.858C603.23 277.445 604.012 272.002 604.712 266.762C608.667 237.158 618.858 223.639 637.218 223.639C643.319 223.639 646.264 224.613 650.482 228.027C659.956 235.692 657.624 248.772 646.243 251.816C641.263 253.149 634.681 252.36 632.663 250.189C628.318 245.512 625.561 252.891 629.033 259.902C631.916 265.721 637.527 270.567 644.847 273.56C649.714 275.549 652.146 275.932 657.768 275.593C669.651 274.876 678.019 269.739 684.045 259.458C688.148 252.457 688.424 240.72 684.66 233.388C681.562 227.356 670.88 217.255 663.73 213.598L658.274 210.808L665.497 207.73C678.285 202.279 687.011 191.765 689.186 179.184C689.84 175.398 689.774 175.315 684.571 173.254C672.371 168.424 656.988 170.248 644.986 177.948L639.426 181.516L639.409 176.252C639.389 169.667 636.798 159.67 633.713 154.271C629.962 147.705 621.636 140.949 614.796 138.92C606.892 136.575 593.627 137.177 587.099 140.175C581.715 142.65 575.849 148.299 573.402 153.365C570.515 159.346 571.063 169.177 574.65 175.723C577.789 181.451 580.518 183.728 585.586 184.841C588.37 185.452 588.457 185.322 588.457 180.583C588.457 167.335 606.527 161.653 615.446 172.096C621.777 179.508 619.847 190.327 610.952 197.303C600.182 205.747 585.123 204.933 556.884 194.378C549.472 191.608 543.27 189.228 543.103 189.086C542.936 188.946 544.762 186.17 547.16 182.919C554.22 173.35 555.772 168.529 555.681 156.447C555.584 143.678 553.619 138.022 538.598 107.307C533.07 95.9993 527.915 85.0029 527.143 82.8708C525.754 79.0318 525.694 78.9997 521.097 79.6155C518.544 79.9574 505.337 81.3765 491.748 82.7685C461.45 85.8723 455.791 86.7358 445.336 89.8507C429.837 94.4669 420.075 101.915 413.557 114.097C411.363 118.196 409.727 120.142 408.857 119.687C408.122 119.302 402.688 115.699 396.781 111.678C376.25 97.7062 367.305 86.9474 367.3 76.2178C367.296 63.1615 378.915 53.565 391.627 56.1254C399.643 57.741 404.535 64.7309 402.865 72.1852C402.08 75.6933 395.583 82.235 392.885 82.235C388.219 82.235 394.28 87.9182 399.96 88.8699C412.929 91.0431 426.72 84.6007 432.395 73.7176C437.188 64.5254 435.402 54.0956 427.41 44.6275C416.41 31.5933 394.479 29.3178 374.74 39.1619L368.913 42.0692L369.557 35.2146C370.302 27.2629 368.586 19.4014 364.815 13.5046C362.142 9.32464 351.763 0 349.785 0C349.168 0 345.96 2.36877 342.654 5.26504ZM353.949 92.5143C357.259 97.7102 364.999 104.745 390.066 125.345C408.164 140.217 415.009 148.946 420.933 164.703C426.702 180.05 427.003 199.345 421.641 210.167C419 215.501 411.29 222.531 405.275 225.092C395.243 229.364 383.089 227.877 374.779 221.361C369.587 217.291 367.405 213.223 367.307 207.431C367.218 202.198 369.759 198.744 375.74 195.965C383.378 192.417 392.361 195.967 392.361 202.534C392.361 204.731 392.912 205.618 394.326 205.699C405.644 206.338 411.927 201.023 411.82 190.9C411.718 181.228 403.62 171.311 393.643 168.643C384.424 166.176 371.466 167.955 363.939 172.72C362.205 173.819 360.557 174.512 360.276 174.261C359.994 174.01 360.614 171.456 361.652 168.586C365.419 158.169 376.824 150.492 389.109 150.102C392.124 150.007 394.593 149.657 394.598 149.325C394.627 147.316 388.715 141.529 384.456 139.398C380.15 137.243 378.14 136.909 370.148 137.019C361.253 137.142 360.883 137.059 361.584 135.087C362.77 131.751 362.246 124.731 360.537 121.081C358.66 117.068 352.27 110.315 350.352 110.315C348.125 110.315 342.105 116.529 339.667 121.347C337.139 126.338 336.742 130.859 338.47 134.92L339.608 137.592L332.93 136.9C323.306 135.903 315.235 138.188 309.958 143.405C304.604 148.696 304.748 149.901 310.753 150.044C324.485 150.37 336.717 159.307 339.055 170.721L339.821 174.465L332.781 171.222C326.444 168.304 324.776 167.981 316.095 167.989C309.128 167.995 305.469 168.474 302.919 169.714C284.644 178.602 282.769 202.729 300.133 205.564C305.601 206.458 306.508 205.994 307.532 201.783C309.285 194.567 318.408 192.153 326.201 196.842C331.379 199.959 333.026 203.121 332.483 208.917C331.194 222.712 311.427 231.903 296.269 225.755C280.648 219.419 273.599 206.55 274.783 186.533C275.526 173.983 278.433 164.121 284.836 152.436C288.923 144.973 291.265 142.35 303.633 131.375C311.403 124.481 323.632 113.875 330.807 107.808C339.58 100.39 344.697 95.216 346.431 92.0129C347.85 89.3934 349.367 87.2493 349.803 87.2493C350.238 87.2493 352.104 89.6181 353.949 92.5143ZM205.187 93.8582L215.105 94.5201L211.138 98.1554C206.488 102.418 202.836 109.307 201.862 115.651L201.168 120.166L196.25 118.283C189.041 115.524 181.592 114.95 175.336 116.672C172.402 117.481 170.002 117.915 170.002 117.638C170.002 117.36 173.027 111.486 176.726 104.582L183.449 92.0289L189.36 92.6126C192.611 92.9335 199.733 93.4941 205.187 93.8582ZM523.493 105.044C527.247 112.074 530.211 117.921 530.08 118.037C529.95 118.154 527.588 117.549 524.834 116.693C518.842 114.832 511.327 115.381 504.189 118.201C501.456 119.28 498.929 119.903 498.573 119.585C498.216 119.267 497.925 117.583 497.925 115.842C497.925 110.52 494.502 103.329 489.922 99.0299C487.527 96.7815 485.7 94.8239 485.861 94.6785C486.133 94.4368 507.055 92.7309 513.753 92.405C516.42 92.2756 517.245 93.3467 523.493 105.044ZM253.69 103.54C260.901 106.819 269.004 114.553 271.606 120.639C274.573 127.575 273.445 138.057 268.29 151.433C257.481 179.485 256.383 199.353 264.767 215.18C275.824 236.054 301.685 245.164 328.629 237.678C332.181 236.691 335.086 236.079 335.086 236.316C335.086 236.554 331.953 241.132 328.124 246.49C312.826 267.892 312.023 279.91 324.354 302.887C328.062 309.796 329.526 315.903 327.476 315.903C325.24 315.903 321.206 312.185 315.25 304.638C306.723 293.834 301.192 289.142 292.846 285.633C283.515 281.711 275.141 280.632 260.125 281.417C253.176 281.78 247.491 281.884 247.491 281.648C247.491 281.41 250.432 278.516 254.027 275.215C278.511 252.731 275.297 220.653 246.856 203.667C235.944 197.148 218.611 191.241 201.447 188.191C183.637 185.025 176.002 182.455 169.712 177.511C162.31 171.694 159.353 165.077 159.402 154.441C159.435 147.23 159.897 145.131 162.404 140.812C168.177 130.863 177.697 126.507 187.411 129.371C198.959 132.773 198.13 149.436 186.414 149.423C182.707 149.419 175.617 146.139 175.617 144.428C175.617 142.122 173.145 143.647 171.629 146.888C169.519 151.399 169.56 157.57 171.729 162.209C174.056 167.182 176.45 169.418 181.794 171.609C190.246 175.075 200.58 173.561 208.195 167.74C212.192 164.685 212.751 164.511 213.335 166.146C216.956 176.276 224.039 182.719 236.753 187.446C241.338 189.15 245.598 190.544 246.22 190.544C247.839 190.544 249.186 182.344 249.106 172.994C249.03 164.428 247.208 159.877 241.372 153.683L238.515 150.651L242.161 150.015C247.74 149.04 255.855 143.182 258.575 138.164C261.35 133.044 261.715 125.535 259.382 121.547C255.995 115.757 246.816 110.315 240.436 110.315C237.915 110.315 237.822 110.569 238.283 116.262C238.716 121.61 238.474 122.47 235.88 124.787C231.502 128.695 225.896 128.338 220.847 123.829C217.18 120.554 216.928 119.937 217.412 115.433C218.067 109.334 221.689 104.665 227.727 102.135C234.236 99.406 245.998 100.042 253.69 103.54ZM470.02 101.314C475.223 102.605 481.832 109.039 482.829 113.782C484.259 120.586 478.287 127.351 470.843 127.36C463.993 127.369 459.224 119.972 461.81 113.349C462.964 110.393 462.904 110.315 459.477 110.315C454.155 110.315 446.444 114.123 442.888 118.509C436.326 126.598 437.593 135.707 446.375 143.582C449.558 146.438 453.409 148.752 456.233 149.508C458.781 150.189 460.865 150.949 460.865 151.196C460.865 151.443 459.523 153.063 457.883 154.798C452.687 160.295 450.805 165.284 450.832 173.496C450.854 180.684 452.088 189.057 453.28 190.122C454.272 191.008 468.586 185.713 473.707 182.567C479.969 178.72 482.862 175.434 485.229 169.48L487.106 164.763L491.98 168.086C507.41 178.603 526.977 173.061 529.953 157.332C530.633 153.742 529.266 147.33 527.217 144.487C526.377 143.322 525.431 143.648 522.124 146.242C515.642 151.324 508.15 150.318 505.178 143.966C504.034 141.522 503.924 139.744 504.751 137.073C507.875 126.966 523.617 125.584 532.953 134.599C538.357 139.816 540.6 145.937 540.6 155.462C540.6 162.011 540.097 164.046 537.197 169.229C531.503 179.404 522.664 183.845 499.844 188.001C459.858 195.283 437.225 209.16 431.152 230.117C426.507 246.145 431.689 261.714 446.141 275.153L453.565 282.057L440.089 281.36C429.94 280.835 424.627 281.034 418.573 282.164C404.212 284.845 397.991 288.864 385.896 303.278C374.638 316.694 372.146 318.411 372.146 312.75C372.146 311.015 374.423 305.161 377.204 299.74C383.3 287.867 384.992 281.406 384.141 273.264C383.259 264.828 380.034 257.69 372.133 246.686C368.435 241.535 365.408 236.997 365.408 236.602C365.408 236.207 368.567 236.796 372.427 237.911C382.643 240.861 398.477 240.754 407.521 237.673C439.949 226.628 448.899 197.198 432.835 154.441C426.96 138.803 425.59 131.673 427.161 124.913C431.052 108.175 451.745 96.7825 470.02 101.314ZM212.074 204.072C238.621 211.017 254.266 223.871 256.165 240.297C257.868 255.04 245.292 267.775 229.042 267.761C224.395 267.757 217.844 264.949 215.304 261.871C211.771 257.592 212.761 249.391 217.337 245.04C220 242.509 224.779 241.965 228.545 243.765C231.578 245.216 233.668 243.553 235.201 238.469C237.463 230.968 232.343 223.967 222.449 221.033C216.034 219.13 207.025 219.559 201.693 222.021C192.662 226.191 185.848 236.439 184.87 247.318C184.553 250.842 183.901 253.725 183.419 253.725C182.006 253.725 175.729 246.186 173.917 242.312C171.295 236.707 171.782 227.081 175.003 220.905C176.51 218.013 177.269 215.406 176.695 215.09C175.296 214.317 167.883 215.573 164.303 217.19C159.835 219.206 153.688 225.84 151.461 231.048L149.446 235.757L146.529 233.323C141.824 229.397 136.844 227.65 130.358 227.65C122.066 227.65 117.217 229.261 117.231 232.011C117.267 239.043 127.335 250.062 134.878 251.326C139.192 252.049 139.411 252.736 136.152 255.324C134.829 256.375 132.56 259.491 131.109 262.249C127.771 268.598 127.646 275.463 130.771 280.934L133.092 284.995L136.333 280.433C140.186 275.007 147.252 270.19 153.61 268.654C158.616 267.444 169.713 267.963 172.901 269.556C174.632 270.421 174.282 270.83 170.231 272.675C155.128 279.556 147.812 295.871 154.303 308.202C156.894 313.124 162.77 318.412 167.392 319.981C174.664 322.45 182.726 320.242 186.652 314.705L188.975 311.428L185.104 308.578C182.078 306.35 181.232 304.984 181.232 302.326C181.232 297.737 186.687 292.22 192.641 290.788C204.124 288.027 215.543 300.584 213.162 313.356C210.704 326.551 197.989 335.327 181.232 335.392C173.766 335.422 171.789 334.993 163.825 331.618C151.712 326.487 139.945 318.243 131.761 309.158C119.948 296.045 116.708 288.607 108.75 256.328C103.319 234.294 100.596 226.438 96.9594 222.31C93.6937 218.603 94.1889 217.744 99.2459 218.35C105.528 219.103 115.027 217.265 135.103 211.411C167.148 202.068 175.563 200.46 189.655 200.981C198.471 201.308 204.89 202.193 212.074 204.072ZM529.136 202.153C533.896 203.021 545.373 205.922 554.638 208.6C584.074 217.106 587.845 217.946 597.028 218.037C601.814 218.084 605.731 218.28 605.732 218.47C605.734 218.661 604.715 220.096 603.468 221.659C599.516 226.616 596.002 236.605 591.141 256.7C585.62 279.535 583.137 287.124 578.5 295.344C569.495 311.303 550.616 326.929 532.903 333.082C524.31 336.067 511.713 336.168 504.663 333.311C490.383 327.523 483.856 315.547 487.897 302.549C489.403 297.704 496.438 291.347 501.244 290.489C508.991 289.105 519.247 296.084 519.258 302.747C519.261 304.19 517.675 306.473 515.254 308.511L511.245 311.887L513.631 314.88C517.209 319.367 520.351 320.917 525.871 320.917C537.801 320.917 548.463 309.853 548.46 297.474C548.459 288.808 539.395 276.927 529.156 272.169L525.439 270.441L528.808 269.148C533.066 267.514 542.474 267.408 547.451 268.938C553.927 270.929 559.591 274.868 563.271 279.941C567.166 285.307 568.009 285.077 570.746 277.895C573.193 271.471 571.751 265.544 565.831 257.687C563.689 254.846 561.937 252.396 561.937 252.246C561.937 252.094 563.327 251.72 565.025 251.415C572.671 250.043 580.265 241.941 582.767 232.486C583.414 230.041 583.092 229.704 579.164 228.732C569.348 226.297 559.214 227.985 553.612 232.989L550.88 235.428L547.374 229.067C543.063 221.246 537.625 217.066 529.708 215.484C526.425 214.828 523.426 214.572 523.042 214.915C522.658 215.258 523.528 217.7 524.974 220.342C528.405 226.603 528.706 238.378 525.571 243.696C523.465 247.271 517.19 253.725 515.82 253.725C515.406 253.725 514.825 250.454 514.532 246.454C513.293 229.587 499.851 218.194 483.257 219.949C472.576 221.079 464.234 227.462 464.234 234.504C464.234 239.12 467.628 244.937 469.793 244.033C470.75 243.634 473.783 243.282 476.531 243.251C481.014 243.201 481.806 243.557 484.212 246.705C486.419 249.593 486.811 251.146 486.423 255.465C485.894 261.348 483.647 264.275 478.027 266.399C466.813 270.638 452.123 264.84 446.554 253.976C444.122 249.23 443.814 247.469 444.258 240.831C444.884 231.46 447.627 226.248 455.455 219.545C461.23 214.601 474.013 208.099 483.887 205.083C498.344 200.667 515.063 199.585 529.136 202.153ZM356.409 244.448C359.589 247.619 363.992 253.546 366.194 257.618C369.582 263.88 370.286 266.382 370.764 273.857C371.251 281.5 370.928 283.82 368.368 291.024C366.74 295.607 364.019 301.579 362.32 304.295L359.231 309.236L349.865 309.354L340.501 309.472L337.302 303.814C327.412 286.318 326.307 271.499 333.849 257.5C337.212 251.256 347.769 238.682 349.646 238.682C350.187 238.682 353.23 241.277 356.409 244.448ZM273.448 291.839C287.669 294.21 302.649 304.244 311.326 317.213L315.079 322.823L311.045 328.659C308.826 331.869 307.011 335.117 307.011 335.879C307.011 337 305.142 337.139 297.184 336.615C274.427 335.112 261.051 328.754 250.693 314.518C246.207 308.351 240.857 295.418 242.271 294.155C243.356 293.187 256.936 291.049 262.779 290.927C265.32 290.874 270.121 291.284 273.448 291.839ZM453.436 292.912C459.47 294.269 459.448 294.12 455.18 304.306C449.927 316.845 440.36 326.416 428.044 331.45C420.98 334.338 407.217 336.963 399.136 336.963C394.201 336.963 393.639 336.71 392.342 333.913C391.563 332.236 389.495 329.097 387.743 326.938L384.558 323.012L390.16 315.535C399.728 302.759 412.226 294.262 424.979 291.86C431.066 290.715 446.141 291.272 453.436 292.912ZM95.8824 298.425C100.713 300.426 105.977 304.548 120.027 317.327C145.117 340.145 158.253 347.482 176.221 348.713C201.442 350.441 224.18 334.859 229.627 312.113C230.382 308.957 231.356 306.009 231.79 305.562C232.224 305.115 234.988 308.951 237.93 314.086C244.639 325.794 248.287 330.545 254.279 335.38C260.774 340.619 268.973 343.748 279.554 345.025C300.257 347.522 302.774 347.937 304.373 349.123C307.251 351.257 301.593 352.927 285.972 354.56C261.003 357.168 251.263 363.309 239.19 384.059C235.638 390.165 232.321 394.932 231.819 394.656C231.316 394.378 230.562 392.11 230.143 389.616C229.724 387.122 227.405 381.555 224.99 377.247C214.546 358.612 193.894 348.745 172.178 352.016C156.694 354.348 136.296 366.163 121.432 381.409C103.237 400.074 95.5163 404.658 82.4062 404.583C57.2729 404.439 39.1551 380.316 53.7803 366.468C56.9079 363.506 58.1264 363.037 62.6915 363.037C67.0387 363.037 68.5638 363.559 71.2624 365.969C74.7393 369.073 75.5782 373.48 73.3883 377.133C72.0193 379.418 66.6176 382.092 63.3709 382.092C60.3938 382.092 60.4679 382.703 63.9414 386.77C67.8978 391.402 74.3226 394.126 81.2944 394.126C88.0662 394.126 92.0765 392.467 96.7202 387.745C101.377 383.008 103.014 378.031 102.349 370.631L101.795 364.475L110.912 364.508C118.603 364.537 120.992 364.116 126.204 361.823C129.601 360.327 134.908 357.064 137.996 354.572L143.611 350.04L138.557 346.008C131.017 339.991 120.415 335.568 113.429 335.524C110.264 335.504 106.352 335.812 104.737 336.21L101.8 336.934L102.348 330.099C102.792 324.548 102.44 322.344 100.469 318.367C99.1347 315.673 97.1773 312.599 96.1205 311.535C93.3568 308.757 85.8684 305.922 81.2225 305.896C75.7185 305.866 66.1852 310.319 63.4282 314.207L61.1597 317.407L65.325 318.664C76.7517 322.113 77.6984 333.414 66.868 337.091C58.2825 340.005 48.6043 332.376 48.4381 322.56C48.2595 311.984 59.2472 300.647 73.422 296.783C79.694 295.073 89.5295 295.792 95.8824 298.425ZM629.723 297.884C641.516 301.825 651.778 313.025 651.743 321.92C651.723 327.06 647.989 333.594 643.702 335.987C635.248 340.707 623.109 334.184 625.371 326.136C626.263 322.962 630.967 319.188 635.022 318.393C639.072 317.598 639.101 316.903 635.261 312.828C629.712 306.938 619.371 304.354 611.704 306.941C601.417 310.412 594.868 323.632 598.183 334.23C599.017 336.896 598.922 336.981 595.937 336.241C594.223 335.815 590.041 335.514 586.644 335.569C579.068 335.693 569.35 339.791 561.414 346.208L555.987 350.595L562.051 354.914C573.133 362.809 578.022 364.544 589.003 364.479L598.662 364.423L597.663 368.396C595.457 377.159 601.24 388.983 609.424 392.452C617.837 396.016 631.066 393.366 636.049 387.116C639.134 383.247 638.905 382.416 634.552 381.687C630.461 381.001 626.66 377.906 625.415 374.245C623.554 368.772 629.873 363.037 637.766 363.037C641.097 363.037 642.795 363.803 646.203 366.847C658.544 377.869 648.465 397.156 627.235 403.144C618.629 405.572 614.704 405.616 607.753 403.36C599.848 400.796 593.769 396.495 583.268 386.036C551.01 353.907 525.122 344.739 498.306 355.945C484.924 361.538 473.133 375.488 469.849 389.614C469.141 392.662 468.103 394.903 467.543 394.594C466.983 394.286 463.89 389.428 460.672 383.8C456.291 376.142 452.965 371.904 447.454 366.957C438.277 358.72 432.194 356.523 413.016 354.52C395.433 352.683 390.887 350.832 397.423 348.173C398.972 347.543 405.722 346.565 412.426 346.002C439.058 343.758 449.85 336.598 463.615 312.04C465.887 307.984 467.913 304.825 468.115 305.019C468.317 305.213 469.29 308.211 470.277 311.681C477.044 335.467 497.743 350.152 522.536 348.756C543.158 347.594 557.65 338.964 588.89 309.242C599.308 299.329 606.356 295.936 616.642 295.882C620.999 295.859 625.911 296.611 629.723 297.884ZM361.191 323.915C381.563 330.723 387.945 354.477 373.382 369.289C364.869 377.947 348.856 380.751 336.728 375.707C323.169 370.069 315.448 355.509 319.356 342.945C324.327 326.968 343.807 318.108 361.191 323.915ZM42.8578 342.796C45.1532 344.908 48.2483 347.373 49.7352 348.273L52.4394 349.91L46.6008 354.598C40.4129 359.566 38.0557 362.842 35.9119 369.455L34.5901 373.532L27.2028 364.023C23.1408 358.792 19.1361 353.518 18.3051 352.302C16.9114 350.263 17.4842 349.177 25.6317 338.39L34.4688 326.689L36.5767 332.823C37.9827 336.912 40.0771 340.237 42.8578 342.796ZM675.258 339.47L683.374 350.022L674.672 361.544C669.886 367.881 665.556 373.066 665.051 373.066C664.546 373.066 664.132 371.854 664.132 370.374C664.132 365.909 659.776 359.288 653.734 354.567L648.029 350.111L653.747 345.52C659.887 340.589 664.132 334.043 664.132 329.503C664.132 325.57 665.525 326.818 675.258 339.47ZM308.949 368.302C310.725 371.198 312.866 374.525 313.706 375.696C315.092 377.627 314.744 378.483 309.971 384.896C303.2 393.991 293.737 401.687 284.646 405.494C278.45 408.088 275.857 408.561 266.116 408.875C259.111 409.102 252.434 408.732 248.614 407.905C242.651 406.616 242.443 406.457 242.605 403.333C242.828 399.053 249.949 385.797 254.959 380.339C262.946 371.634 276.485 365.716 292.136 364.088C306.078 362.639 305.366 362.461 308.949 368.302ZM416.786 365.627C434.843 369.211 447.675 379.444 455.039 396.132C459.166 405.484 458.962 406.4 452.442 407.784C443.019 409.785 428.223 409.463 420.094 407.08C408.529 403.689 397.254 395.061 388.685 383.042C384.748 377.52 384.732 377.455 386.792 375.019C387.934 373.67 390.002 370.402 391.389 367.759L393.912 362.953L401.84 363.593C406.2 363.945 412.927 364.86 416.786 365.627ZM196.955 367.891C208.071 373.051 213.065 379.925 213.11 390.128C213.133 395.216 212.53 397.644 210.381 401.12C205.33 409.29 197.655 411.99 189.411 408.497C181.225 405.028 178.845 396.923 184.601 392.12C186.454 390.575 187.97 388.83 187.97 388.243C187.97 385.798 180.936 380.127 177.107 379.486C164.861 377.434 151.636 389.511 151.809 402.588C151.935 412.099 158.892 421.942 169.209 427.204L174.941 430.127L171.629 431.282C169.808 431.918 165.285 432.462 161.579 432.491C150.878 432.574 143.796 429.052 136.238 419.888L133.085 416.065L131.049 418.841C129.557 420.874 129.012 423.553 129.012 428.845C129.012 435.677 129.267 436.404 133.636 442.059L138.26 448.043L133.852 449.222C127.755 450.853 121.278 456.94 118.936 463.241C117.877 466.085 117.273 469.019 117.592 469.761C118.437 471.73 128.725 473.656 134.078 472.849C136.591 472.47 141.102 470.685 144.101 468.883L149.554 465.605L153.321 472.195C158.001 480.384 163.504 484.147 172.127 485.06C175.608 485.428 177.963 485.314 177.686 484.79C173.116 476.169 172.248 473.588 172.248 468.622C172.248 460.76 174.191 455.892 179.465 450.536L184.04 445.89L184.781 452.526C186.158 464.848 193.493 475.337 203.294 478.994C207.861 480.697 217.093 480.774 223.134 479.157C225.633 478.489 229.331 476.464 231.353 474.659C236.257 470.28 237.114 465.838 234.193 459.94L231.918 455.347L227.903 456.845C219.849 459.851 213.368 455.058 213.368 446.097C213.368 439.957 216.198 436.401 223.134 433.821C227.753 432.104 228.978 432.031 234.556 433.147C242.264 434.687 249.341 439.331 253.106 445.319C257.08 451.641 257.083 463.56 253.114 470.845C247.518 481.111 233.599 490.12 214.923 495.567C206.013 498.165 201.941 498.757 190.216 499.158C173.889 499.716 170.006 499 136.311 489.209C118.946 484.163 113.823 483.084 105.106 482.637C99.3694 482.342 94.8212 481.825 94.9986 481.488C95.176 481.15 96.9673 477.941 98.9797 474.355C102.59 467.923 105.092 459.802 111.034 435.244C117.232 409.623 122.03 400.392 136.125 386.969C145.44 378.098 156.292 371.225 166.794 367.544C176.323 364.205 189.334 364.354 196.955 367.891ZM538.441 369.739C559.961 379.286 577.903 398.077 584.225 417.693C585.469 421.554 587.795 430.129 589.393 436.748C590.991 443.367 593.372 452.844 594.683 457.808C597.137 467.1 602.241 478.562 604.473 479.794C607.456 481.441 605.101 482.168 595.347 482.615C586.51 483.02 581.774 484.018 563.622 489.299C534.075 497.895 526.487 499.413 513.086 499.413C498.726 499.413 486.004 496.75 472.58 490.935C453.289 482.577 444.022 471.899 444.021 458.027C444.02 447.24 448.915 439.791 459.181 434.96C464.817 432.307 474.504 432.118 479.657 434.56C487.741 438.391 489.223 449.992 482.329 455.492C478.349 458.667 476.273 458.935 471.801 456.852C468.889 455.495 468.589 455.559 466.889 457.876C465.893 459.233 464.843 462.256 464.556 464.591C463.027 477.069 484.016 485.074 499.075 477.756C508.572 473.139 514.77 463.035 514.77 452.166C514.77 448.926 515.264 446.275 515.867 446.275C517.989 446.275 525.652 456.125 527.085 460.693C529.005 466.815 528.103 474.108 524.657 480.323L521.852 485.387L525.892 485.365C534.885 485.316 545.858 477.495 548.662 469.135C549.365 467.042 550.171 465.33 550.455 465.33C550.74 465.33 552.626 466.626 554.649 468.212C559.808 472.257 567.915 473.844 575.883 472.367C579.309 471.732 582.365 470.846 582.674 470.4C582.983 469.954 582.458 467.249 581.507 464.391C579.34 457.873 573.435 451.929 566.919 449.708C564.179 448.773 561.937 447.848 561.937 447.652C561.937 447.455 563.686 445.25 565.822 442.75C572.358 435.104 573.6 427.827 569.669 420.201L567.345 415.688L565.483 418.171C558.256 427.813 549.556 432.5 538.957 432.46C535.227 432.446 530.743 431.934 528.99 431.323L525.803 430.212L532.04 426.459C546.418 417.812 551.932 404.235 545.785 392.622C541.694 384.894 533.17 379.083 525.925 379.083C521.761 379.083 516.014 382.182 513.535 385.764C511.21 389.124 511.201 389.263 513.236 390.639C514.388 391.419 515.65 392.071 516.038 392.088C517.526 392.155 519.43 398.098 518.674 400.32C517.659 403.306 513.922 406.966 510.053 408.763C499.113 413.846 486.654 403.774 486.719 389.896C486.75 383.307 489.554 377.744 495.345 372.786C501.967 367.116 508.95 364.986 519.911 365.292C528.007 365.517 529.998 365.995 538.441 369.739ZM382.812 393.707C392.009 405.076 402.104 413.518 409.801 416.277C415.91 418.467 418.126 418.681 434.755 418.688C444.792 418.692 453.004 418.7 453.004 418.704C453.004 418.709 449.846 421.667 445.985 425.278C437.934 432.809 433.599 439.39 431.142 447.814C426.426 463.983 431.801 479.786 446.015 491.537C457.708 501.205 474.732 507.766 500.457 512.518C522.252 516.545 531.695 521.247 537.61 531.017C540.956 536.545 541.162 554.203 537.945 559.599C533.088 567.742 526.788 571.635 518.476 571.629C511.031 571.624 506.25 568.872 504.688 563.693C501.394 552.768 513.747 546.496 522.739 554.526C526.555 557.935 527.605 557.228 529.467 549.996C532.312 538.954 524.971 529.119 512.3 526.996C506.668 526.052 496.637 528.823 491.716 532.682C489.53 534.395 487.596 535.624 487.418 535.413C487.239 535.201 486.248 532.988 485.214 530.493C481.86 522.398 474.045 516.525 460.656 512.038L453.148 509.521L451.84 515.143C450.119 522.553 450.88 535.082 453.325 539.553C454.384 541.488 456.619 544.39 458.291 546.001C460.461 548.091 460.903 549.058 459.835 549.376C444.466 553.951 435.239 566.937 440.051 577.223C443.602 584.814 451.004 589.685 458.988 589.685H462.799L461.638 585.799C460.143 580.8 462.158 576.137 466.72 574.029C471.287 571.921 475.777 573.05 480.033 577.381C483.071 580.469 483.49 581.537 482.984 584.903C482.66 587.06 481.133 590.528 479.591 592.608C471.351 603.728 448.763 602.151 435.548 589.533C428.64 582.94 426.827 578.795 426.839 569.627C426.846 563.4 427.739 559.691 432.026 548.066C446.42 509.031 442.83 484.228 420.601 469.109C410.572 462.288 401.117 459.894 386.911 460.58C380.952 460.867 373.85 461.833 371.129 462.725C368.408 463.618 365.929 464.123 365.62 463.848C365.313 463.572 367.364 460.254 370.18 456.473C380.287 442.899 384.466 433.324 384.48 423.711C384.489 417.194 383.12 412.88 377.099 400.45C374.374 394.827 372.146 388.793 372.146 387.04C372.146 383.971 372.241 383.907 374.673 385.311C376.063 386.113 379.725 389.892 382.812 393.707ZM328.348 387.223C328.348 388.392 325.709 394.596 322.483 401.013L316.618 412.679L316.587 423.711C316.559 433.997 316.791 435.182 320.03 441.261C321.94 444.846 326.117 451.346 329.312 455.704C332.507 460.061 334.986 463.737 334.823 463.87C334.659 464.004 330.987 463.285 326.664 462.272C306.966 457.659 288.389 461.235 275.312 472.157C256.811 487.612 254.393 512.834 268.034 548.066C272.205 558.839 272.697 561.099 272.726 569.627C272.755 578.248 272.464 579.602 269.664 583.856C261.915 595.628 245.227 602.42 231.733 599.294C222.722 597.207 217.169 591.352 217.169 583.94C217.169 579.206 219.665 575.868 224.58 574.034C229.783 572.093 231.083 572.251 235.172 575.323C238.574 577.879 238.724 578.293 238.274 583.847L237.801 589.685H241.568C255.762 589.685 265.474 574.427 258.759 562.676C255.894 557.659 248.201 551.824 242.714 550.505L238.38 549.463L241.953 545.828C248.79 538.875 250.936 529.775 248.625 517.541L247.248 510.251L243.719 510.881C238.161 511.871 227 516.876 222.527 520.384C218.932 523.202 215.49 528.259 213.403 533.788C212.815 535.347 212.136 535.148 207.681 532.111C195.26 523.645 178.297 525.877 172.402 536.752C169.534 542.042 169.334 548.038 171.838 553.627L173.674 557.724L177.489 554.422C185.241 547.713 195.832 551.37 195.832 560.758C195.832 564.06 195.097 565.47 191.883 568.34C188.064 571.751 187.706 571.852 180.855 571.463C173.15 571.025 169.599 569.236 164.726 563.344C158.422 555.721 157.186 541.789 161.959 532.154C166.973 522.029 177.062 516.627 197.895 512.907C225.136 508.045 243.37 500.983 255.049 490.776C275.964 472.495 275.62 444.738 254.24 425.468C250.528 422.121 247.491 419.185 247.491 418.943C247.491 418.701 253.854 418.721 261.632 418.989C288.251 419.905 299.859 415.209 313.287 398.097C322.713 386.085 328.348 382.016 328.348 387.223ZM363.642 398.42C369.345 409.01 371.372 417.04 370.801 426.776C370.21 436.824 365.484 446.491 356.399 456.237L350.385 462.687L344.358 456.765C336.903 449.44 330.919 438.851 329.299 430.122C327.678 421.385 330.044 410.76 336.135 399.423L340.598 391.117H350.153H359.709L363.642 398.42ZM319.113 475.244C331.736 480.994 336.707 493.42 329.369 500.882C325.553 504.763 319.009 506.909 314.245 505.841C310.893 505.09 307.021 500.109 307.015 496.539C307.011 494.304 306.689 494.184 301.973 494.658C299.202 494.938 295.623 495.934 294.019 496.873C284.563 502.405 287.04 520.211 298.338 527.906C303.583 531.479 307.807 532.664 315.434 532.704C323.781 532.747 330.177 531.26 335.494 528.038L339.579 525.562L339.567 527.788C339.548 531.642 334.492 539.923 330.011 543.435C324.461 547.787 319.27 549.722 311.135 550.472L304.59 551.074L307.916 555.167C312.856 561.246 317.966 563.113 329.59 563.087L339.256 563.066L338.193 566.504C337.609 568.394 337.452 571.855 337.845 574.195C338.61 578.758 343.93 586.775 347.796 589.192C349.979 590.558 350.448 590.424 353.951 587.42C356.038 585.632 358.74 582.443 359.956 580.334C362.146 576.54 362.95 568.754 361.556 564.834C360.898 562.982 361.306 562.9 368.752 563.376C378.688 564.01 385.053 562.017 390.604 556.529C392.805 554.353 394.607 552.186 394.607 551.712C394.607 551.239 391.61 550.609 387.948 550.312C379.815 549.653 371.122 545.674 366.823 540.641C363.985 537.319 359.438 527.49 360.358 526.669C360.579 526.471 364.029 527.747 368.026 529.504C382.384 535.817 399.354 532.934 406.781 522.921C416.527 509.782 412.218 495.862 398.029 494.643L392.361 494.158V497.606C392.361 504.706 384.795 507.988 376.227 504.604C370.066 502.17 367.277 498.574 367.289 493.08C367.309 483.897 376.236 475.371 388.161 473.148C400.156 470.911 414.575 478.081 421.058 489.505C427.874 501.517 426.861 522.741 418.58 541.4C413.336 553.214 407.308 560.21 389.5 575.143C363.226 597.177 355.875 604.039 353.147 609.071C351.751 611.647 350.274 613.736 349.867 613.712C349.458 613.689 347.95 611.435 346.514 608.702C344.559 604.98 339.772 600.274 327.423 589.941C294.714 562.566 290.757 558.62 284.632 547.255C276.867 532.846 275.05 525.787 275.035 509.957C275.023 498.019 275.266 496.454 277.922 491.404C279.517 488.37 282.22 484.413 283.928 482.609C287.452 478.888 295.364 474.462 300.646 473.256C305.853 472.069 314.088 472.954 319.113 475.244ZM201.973 585.423C203.08 592.161 206.432 598.445 210.953 602.252L214.835 605.522L211.229 606.07C209.246 606.37 202.224 606.92 195.624 607.292L183.625 607.967L176.746 595.711C172.961 588.971 170.123 583.225 170.438 582.944C170.753 582.663 172.628 582.936 174.604 583.551C179.814 585.174 187.705 584.852 194.147 582.755C197.235 581.75 200.083 580.867 200.476 580.793C200.871 580.719 201.543 582.803 201.973 585.423ZM507.822 583.388C512.592 584.879 522.2 584.763 527.952 583.144C530.208 582.509 529.781 583.711 523.794 594.836L517.12 607.235L506.118 607.028C500.068 606.915 492.906 606.541 490.204 606.196L485.291 605.57L489.238 601.89C494.177 597.285 496.544 593.135 497.425 587.534C498.449 581.02 498.822 580.362 501.022 581.162C502.098 581.554 505.158 582.555 507.822 583.388Z" fill="#978661" fill-opacity="0.1"/>
</svg>
