<svg width="252" height="248" viewBox="0 0 252 248" fill="none" xmlns="http://www.w3.org/2000/svg">
<path fill-rule="evenodd" clip-rule="evenodd" d="M58.0507 0.598417C56.3189 1.29174 54.0564 3.30082 53.0582 5.03052C52.6166 5.79655 52.2569 11.1335 52.0661 19.7501L51.7669 33.2682L39.691 33.5686C28.7162 33.8413 27.4607 33.9819 25.9276 35.106C23.0893 37.186 21.5472 41.0029 21.5472 45.9475V50.2612L14.8151 50.4793C9.43604 50.6529 7.67493 50.9377 6.05145 51.896C3.4382 53.4377 1.8584 55.5927 1.17562 58.5481C0.455133 61.6692 0.455133 227.764 1.17562 230.885C1.8584 233.84 3.437 235.995 6.05145 237.54C8.03038 238.711 9.31337 238.746 55.6134 238.906L103.144 239.071L106.223 241.994C111.861 247.349 113.044 247.719 125.22 247.951C138.383 248.2 140.433 247.673 145.624 242.701L149.13 239.343L197.092 239.042C250.353 238.709 247.208 238.966 250.242 234.696L251.635 232.734V144.61V56.4873L250.376 54.7907C247.861 51.4033 245.782 50.7112 237.423 50.4811L229.793 50.2702V45.456C229.793 40.1263 228.679 37.2905 225.713 35.0706C224.15 33.8996 223.039 33.8648 182.22 33.7007C134.549 33.5097 137.448 33.2267 131.717 38.6315C129.94 40.3078 128.382 41.3832 128.256 41.0215C128.129 40.6592 126.831 38.5372 125.371 36.3052C111.91 15.7284 92.2181 3.47986 67.9239 0.571981C61.5059 -0.196444 60.0267 -0.192236 58.0507 0.598417ZM71.7854 12.2708C77.2213 13.306 85.4902 16.0787 90.065 18.4007C101.446 24.1774 113.193 35.8174 118.842 46.9166L120.285 49.7505V123.081V196.412L115.049 191.101C108.623 184.583 103.235 180.543 95.7726 176.647C86.4045 171.756 80.5353 170.077 64.7822 167.777L62.8374 167.492V89.416V11.3389H64.866C65.9814 11.3389 69.095 11.7583 71.7854 12.2708ZM52.0756 107.918L52.0858 171.452L53.4221 173.803C55.2628 177.038 57.9137 178.232 64.8684 178.956C77.8126 180.303 87.4529 183.712 97.2459 190.403C102.128 193.739 107.487 198.466 110.002 201.653L111.771 203.896L72.3437 203.737L32.917 203.578V123.981V44.383H42.4915H52.0661L52.0756 107.918ZM219.022 123.989V203.595L180.275 203.599C155.609 203.601 140.724 203.826 139.315 204.219C138.098 204.558 135.742 205.755 134.079 206.879L131.056 208.921V130.873V52.8248L132.901 51.8672C133.916 51.3403 136.338 49.4405 138.282 47.6459L141.817 44.383H180.419H219.022V123.989ZM21.6873 135.001L21.8464 208.195L23.5166 210.393C24.4352 211.602 25.7816 212.933 26.5086 213.35C27.5235 213.933 37.3626 214.179 68.9053 214.41L109.979 214.71L113.336 217.898C117.727 222.067 121.311 223.691 125.969 223.622C130.52 223.554 133.413 222.283 137.269 218.657C138.953 217.072 140.92 215.469 141.638 215.093C142.577 214.602 154.191 214.41 182.838 214.41C227.741 214.41 225.574 214.624 228.318 209.923L229.793 207.395V134.6V61.8062H235.478H241.163V144.702V227.599L194.637 227.763C148.17 227.928 148.107 227.929 145.268 229.246C143.704 229.971 140.915 231.999 139.069 233.752L135.714 236.94L127.631 237.138C123.186 237.247 118.896 237.171 118.097 236.97C117.299 236.769 115.018 235.102 113.028 233.265C106.775 227.493 111.3 227.95 58.4989 227.76L11.9727 227.592V144.699V61.8062H16.7504H21.5287L21.6873 135.001ZM147.213 69.0158V74.423H175.338H203.463V69.0158V63.6086H175.338H147.213V69.0158ZM147.213 97.8543V103.261H175.338H203.463V97.8543V92.4471H175.338H147.213V97.8543ZM147.213 126.693V132.1H175.338H203.463V126.693V121.285H175.338H147.213V126.693ZM147.213 155.531V160.938H175.338H203.463V155.531V150.124H175.338H147.213V155.531ZM147.213 184.219V189.777H175.338H203.463V184.37V178.962L200.023 178.912C198.13 178.884 185.474 178.817 171.897 178.762L147.213 178.662V184.219Z" fill="#000"/>
</svg>
